<?xml version="1.0" encoding="UTF-8"?>
<svg id="Layer_2" data-name="Layer 2" xmlns="http://www.w3.org/2000/svg" viewBox="0 0 384.12 807.87">
  <defs>
    <style>
      .cls-1 {
        fill: #002746;
        stroke-width: 0px;
      }
    </style>
  </defs>
  <g id="Layer_1-2" data-name="Layer 1">
    <path class="cls-1" d="M314.82,0c30.28,36.56,52.08,81.08,62.43,127.42,5.89,26.36,7.92,53.04,6.38,79.94-2.22,38.7-11.77,75.58-28.69,110.48-18.6,38.37-44.37,71.14-77.21,98.36-1.87,1.55-3.62,3.22-5.24,5.03-4.85,5.44-9.76,10.84-14.36,16.49-16.73,20.58-32.34,41.99-46.45,64.46-16.1,25.64-29.39,52.64-38.83,81.47-4.88,14.9-8.2,30.15-10.4,45.67-3.95,27.77-4.57,55.67-3.4,83.62.64,15.31,2.09,30.57,4.23,45.76,1.05,7.42,1.95,14.87,3.07,22.28,1.22,8.08,3.42,15.9,6.85,23.35.45,1.11,1.09,2.4,1.68,3.53-4.41,0-170.62,0-174.88,0V0"/>
  </g>
</svg>