<?xml version="1.0" encoding="UTF-8"?>
<svg id="Layer_2" data-name="Layer 2" xmlns="http://www.w3.org/2000/svg" viewBox="0 0 510.68 102.26">
  <defs>
    <style>
      .cls-1 {
        fill: #002746;
      }

      .cls-1, .cls-2 {
        stroke-width: 0px;
      }

      .cls-2 {
        fill: #ff9e01;
      }
    </style>
  </defs>
  <g id="Layer_1-2" data-name="Layer 1">
    <g>
      <path class="cls-2" d="M110.01,56.57c-.19-.08-.41,0-.49.19h0c-1.29,2.96-3.43,5.45-5.84,7.54-2.06,1.77-4.34,3.26-6.73,4.55-1.03-5.45-2.73-10.67-4.75-15.69-2.48-6.12-5.57-11.94-9.14-17.42-3.6-5.46-7.7-10.58-12.27-15.23-2.29-2.32-4.71-4.51-7.26-6.55-.56-.45-1.13-.89-1.71-1.32l.94-.53.98-.51c1.29-.7,2.61-1.29,3.93-1.87l1-.39.5-.2c.17-.06.33-.12.5-.18l1-.35,1-.3.5-.15.5-.12,1-.24c.66-.12,1.33-.27,1.99-.33.66-.11,1.31-.12,1.96-.17l.96.02c.08,0,.16,0,.24,0l.23.02c.16.02.32.03.47.04,1.26.12,2.47.41,3.62.87,1.14.48,2.21,1.14,3.2,1.94l.72.64c.22.24.44.48.67.72.12.11.22.25.33.38l.31.39c.1.13.22.26.31.4l.28.43.29.43.15.22.13.23.53.92c.16.32.31.64.46.96.07.16.16.32.23.49l.2.5c.58,1.34,1,2.78,1.38,4.25.26,1.06.48,2.14.66,3.24-1.5.54-2.58,1.97-2.58,3.66,0,2.15,1.74,3.89,3.89,3.89s3.89-1.74,3.89-3.89c0-1.71-1.11-3.16-2.64-3.68.03-.38.05-.76.08-1.14.07-.83.06-1.66.07-2.5-.05-1.67-.16-3.37-.53-5.07l-.12-.64c-.04-.22-.11-.42-.16-.63-.12-.42-.23-.85-.35-1.27l-.44-1.26-.11-.32-.14-.31-.28-.62c-.76-1.64-1.73-3.25-3.02-4.65-1.27-1.42-2.8-2.64-4.49-3.59-3.42-1.88-7.39-2.56-11.05-2.31-.93.03-1.82.18-2.73.29-.45.07-.88.17-1.33.25l-.66.14-.65.17c-.43.11-.86.22-1.29.35l-1.26.41c-.21.07-.42.14-.62.21l-.61.24-1.22.48c-1.58.7-3.14,1.46-4.61,2.33-.37.21-.74.43-1.1.65l-1.07.69c-.72.45-1.4.95-2.09,1.43-.23.17-.46.35-.7.52-2.72-1.53-5.56-2.84-8.53-3.79-3.12-.96-6.39-1.53-9.65-1.32-.19.01-.34.17-.35.36,0,.2.16.37.36.38h0c3.14.07,6.21.89,9.1,2.06,2.5,1.02,4.88,2.32,7.15,3.79-4.35,3.51-8.21,7.49-11.77,11.66-4.24,5-7.95,10.38-11.16,16.03-3.17,5.67-5.83,11.62-7.83,17.8-1.23,3.89-2.22,7.87-2.83,11.9-2-1.19-3.87-2.51-5.59-3.93-1.1-.94-2.17-1.91-3.08-2.96-.12-.13-.24-.25-.35-.39l-.32-.4-.32-.4-.16-.2-.14-.2-.58-.83-.5-.85c-.65-1.14-1.13-2.33-1.42-3.55-.31-1.22-.38-2.49-.27-3.77.11-1.28.45-2.57.97-3.85.52-1.27,1.23-2.53,2.08-3.73,1.69-2.42,3.93-4.62,6.38-6.63.86-.7,1.75-1.38,2.66-2.04.62.42,1.36.66,2.17.66,2.15,0,3.89-1.74,3.89-3.89s-1.74-3.89-3.89-3.89-3.89,1.74-3.89,3.89c0,.38.06.75.16,1.09-.99.4-1.96.83-2.93,1.31-3.07,1.54-6.02,3.5-8.57,6.11-.31.33-.64.66-.93,1.01-.3.35-.6.7-.89,1.07-.57.74-1.1,1.53-1.58,2.35-.97,1.65-1.7,3.51-2.12,5.48-.41,1.96-.48,4.03-.19,6.04.29,2.01.92,3.95,1.76,5.74.85,1.8,1.96,3.39,3.16,4.86,1.2,1.48,2.56,2.75,3.96,3.93l1.07.85c.36.28.73.53,1.1.8.73.55,1.5,1,2.25,1.48.38.24.77.45,1.16.67.39.21.77.45,1.17.64.79.39,1.57.82,2.37,1.17.25.11.51.23.77.34,0,1.36.05,2.72.15,4.08.15,1.62.38,3.23.73,4.83.74,3.16,1.95,6.27,3.92,8.86.11.15.33.19.49.09.17-.11.23-.34.12-.51h0c-1.65-2.65-2.55-5.68-2.98-8.73-.21-1.53-.31-3.08-.32-4.63,0-1.03.04-2.05.11-3.08,5.48,2.15,11.14,3.52,16.8,4.48,6.7,1.11,13.47,1.48,20.2,1.27,6.72-.27,13.41-1.15,19.94-2.74,3.26-.81,6.47-1.82,9.6-3.03.87-.33,1.73-.69,2.59-1.06.05,2.37-.08,4.7-.37,6.94-.02.18-.04.35-.07.53l-.09.52c-.07.34-.11.69-.18,1.03-.16.67-.29,1.35-.49,2-.16.67-.41,1.27-.62,1.91-.26.6-.49,1.22-.81,1.77-1.15,2.31-2.85,4.11-5,5.36-.54.31-1.12.57-1.71.8-.6.22-1.23.4-1.87.55-1.3.28-2.68.41-4.1.38-2.85-.03-5.83-.63-8.77-1.54-1.43-.44-2.86-.96-4.28-1.53.08-.31.13-.64.13-.98,0-2.15-1.74-3.89-3.89-3.89s-3.89,1.74-3.89,3.89,1.74,3.89,3.89,3.89c1,0,1.91-.38,2.6-1,1.29.98,2.65,1.9,4.07,2.73,2.89,1.68,6.08,3.02,9.6,3.66.87.17,1.77.26,2.68.33.91.05,1.84.04,2.77-.03.93-.08,1.88-.2,2.81-.43.93-.23,1.86-.52,2.76-.89.9-.38,1.78-.82,2.6-1.37l.62-.4c.21-.13.4-.29.59-.44l.58-.45c.19-.15.39-.3.56-.48.36-.33.71-.68,1.07-1.02l.96-1.1c.16-.18.31-.38.45-.57l.42-.59c.14-.2.29-.39.42-.59l.37-.61c.52-.81.91-1.67,1.33-2.51.35-.86.72-1.73.98-2.6.31-.87.5-1.76.72-2.64.1-.44.17-.88.25-1.32l.12-.66c.03-.22.06-.44.09-.66l.16-1.32.09-1.32.04-.66c.01-.22,0-.44.01-.66v-1.31c.02-.44-.02-.87-.03-1.3-.02-.43-.03-.86-.07-1.29l-.11-1.28-.06-.64-.08-.63c-.06-.42-.11-.83-.18-1.24,2.67-1.65,5.2-3.53,7.41-5.76,1.18-1.21,2.26-2.51,3.2-3.91.93-1.4,1.71-2.92,2.25-4.51.06-.18-.03-.38-.2-.46ZM77.29,75.34c-6.34,1.14-12.79,1.58-19.21,1.44-6.42-.12-12.82-.8-19.03-2.16-5.93-1.29-11.67-3.32-16.86-6.07.23-1.1.49-2.19.77-3.27.8-3,1.8-5.95,2.95-8.83,2.29-5.78,5.2-11.3,8.57-16.5,3.34-5.22,7.14-10.14,11.36-14.61,4.03-4.27,8.55-8.06,13.39-11.11.79.67,1.57,1.35,2.33,2.06,2.3,2.12,4.47,4.39,6.51,6.76,4.09,4.74,7.69,9.89,10.79,15.31,3.13,5.4,5.77,11.06,7.78,16.9,1.88,5.44,3.1,11.1,3.49,16.67-4.15,1.54-8.47,2.65-12.83,3.43Z"/>
      <g>
        <path class="cls-2" d="M44.61,61.68c-.79,2.6.74,6.93,1.94,9.69,1.23.17,2.48.31,3.73.44l-4.85-10.19c-.17-.35-.7-.32-.81.06Z"/>
        <path class="cls-2" d="M35.76,52.12c-.32-.65-.58-1.3-.79-1.96-.17-.52-.29-1.04-.39-1.57-1.71,3.14-3.21,6.32-4.47,9.52-1.09,2.73-1.99,5.41-2.69,7.97,3.89,1.76,8.12,3.15,12.6,4.12,1.65.36,3.33.67,5.03.94-2.68-5.48-7.5-15.35-9.3-19.02Z"/>
        <path class="cls-2" d="M67.52,52.89c0-.89-.72-1.62-1.62-1.62s-1.62.72-1.62,1.62.72,1.62,1.62,1.62,1.62-.72,1.62-1.62Z"/>
        <path class="cls-2" d="M82.36,56.72c-1.88-5.44-4.37-10.86-7.42-16.11l-.02-.03c-2.99-5.25-6.45-10.16-10.3-14.61-1.83-2.14-3.77-4.18-5.79-6.06-3.42,2.44-6.68,5.29-9.72,8.52-1.47,1.56-2.9,3.19-4.29,4.89,7.06-1.41,12.98,4.22,14.06,7.66,1.49,4.72,4.18,4.83,6.47,5.29,3.16.67,4.47,2.55,5.02,4,.32.84.37,1.76.2,2.65-.52,2.76.9,3.8,1.39,4.51,2.18,2.68,2.54,8.5,2.54,8.61s-.27.21-.36-.2c-2.28-8.49-4.9-8.84-6.24-8.09-1.33.76-2.83.9-2.83.9,0,0-7.33-.59-13.27.05-.75.08-1.47.42-1.79,1.11-1.73,3.76.14,9.2,1.4,12.11,2.22.19,4.47.31,6.76.35.75.02,1.51.03,2.25.03,5.5,0,10.9-.47,16.05-1.39,3.09-.56,6.03-1.26,8.77-2.11-.53-3.97-1.5-8.02-2.9-12.08Z"/>
      </g>
    </g>
    <g>
      <g>
        <path class="cls-1" d="M142.58,68.28V18.8h3.3l31,31.01v-31.01h9.9v49.48h-3.63l-30.68-30.68v30.68h-9.89Z"/>
        <path class="cls-1" d="M265.55,68.28h-39.61l.03-3.3,23.06-36.94h-23.06l-.03-9.24h39.61v3.63l-23.15,36.61h23.15v9.24Z"/>
        <path class="cls-1" d="M305.13,68.28V18.8h21.57c11.54,0,17.32,4.75,17.32,14.25s-5.76,14.78-17.28,14.78h-11.71v20.45h-9.89ZM315.03,38.59h13.85c3.98-.07,6.02-1.88,6.13-5.44-.11-3.25-2.12-4.95-6.04-5.08h-13.95v10.52Z"/>
        <path class="cls-1" d="M381.03,68.28V18.8h3.3l21.44,24.41,21.47-24.41h3.3v49.48h-9.9l-.03-28.7-14.84,16.49-14.84-16.49v28.7h-9.89Z"/>
        <path class="cls-1" d="M474.79,61.17c-4.74-4.72-7.11-10.63-7.11-17.73.02-6.95,2.39-12.79,7.12-17.53,4.73-4.74,10.59-7.11,17.58-7.11s13.12,2.2,18.17,6.6l-6.6,7.22c-3.36-2.64-7.22-3.96-11.58-3.96-4.44.02-8.02,1.41-10.74,4.16-2.72,2.75-4.07,6.27-4.07,10.55.02,4.6,1.4,8.25,4.12,10.95s6.31,4.06,10.75,4.06,8.28-1.31,11.51-3.92l6.6,7.22c-5.04,4.4-11.1,6.6-18.17,6.6-6.99-.02-12.86-2.39-17.6-7.11Z"/>
      </g>
      <g>
        <path class="cls-1" d="M142.58,83.43v-8.52h.57l5.34,5.34v-5.34h1.7v8.52h-.62l-5.28-5.28v5.28h-1.7Z"/>
        <path class="cls-1" d="M151.93,83.43v-8.51h6.26s0,1.59,0,1.59h-4.55v1.82h3.41v1.58h-3.41v1.94h4.54v1.59h-6.25Z"/>
        <path class="cls-1" d="M165.08,77.18l-1.7,6.25h-1.7l-2.28-8.52h1.82l1.48,5.79,1.53-5.79h1.76l1.48,5.79,1.48-5.79h1.82l-2.27,8.52h-1.7l-1.7-6.25Z"/>
        <path class="cls-1" d="M182.68,83.43h-6.82v-.57s3.98-6.36,3.98-6.36h-3.97v-1.59s6.81,0,6.81,0v.62l-3.99,6.3h3.99v1.59Z"/>
        <path class="cls-1" d="M184.35,83.43v-8.51h6.26s0,1.59,0,1.59h-4.55v1.82h3.41v1.58h-3.41v1.94h4.54v1.59h-6.25Z"/>
        <path class="cls-1" d="M191.87,83.43l3.41-8.52h1.7l3.4,8.51h-1.81s-.51-1.3-.51-1.3h-3.86l-.51,1.31h-1.82ZM196.18,77.18l-1.29,3.24h2.56l-1.26-3.24Z"/>
        <path class="cls-1" d="M203.38,74.91v6.93h4.54v1.59h-6.25v-8.52h1.7Z"/>
        <path class="cls-1" d="M208.87,83.43l3.41-8.52h1.7l3.4,8.51h-1.81s-.51-1.3-.51-1.3h-3.86l-.51,1.31h-1.82ZM213.18,77.18l-1.29,3.24h2.56l-1.26-3.24Z"/>
        <path class="cls-1" d="M218.66,83.43v-8.52h.57l5.34,5.34v-5.34h1.7v8.52h-.62l-5.28-5.28v5.28h-1.7Z"/>
        <path class="cls-1" d="M228.03,83.43v-8.52h3.28c2.65,0,3.97,1.42,3.97,4.26s-1.32,4.26-3.97,4.26h-3.28ZM231.32,81.73c1.51,0,2.27-.86,2.27-2.56,0-1.7-.76-2.56-2.27-2.56h-1.58v5.12h1.58Z"/>
        <path class="cls-1" d="M241.09,83.43v-8.52h3.71c1.99,0,2.98.82,2.98,2.45s-.99,2.54-2.98,2.54h-2.02v3.52h-1.7ZM242.8,78.32h2.38c.69-.01,1.04-.32,1.06-.94-.02-.56-.37-.85-1.04-.87h-2.4v1.81Z"/>
        <path class="cls-1" d="M249.04,83.43v-8.52h1.7v3.41h3.97v-3.41h1.7v8.52h-1.7s0-3.52,0-3.52h-3.97v3.52h-1.7Z"/>
        <path class="cls-1" d="M257.76,74.91h2l1.98,2.78,2.02-2.78h1.95l-3.12,4.26v4.26h-1.7v-4.26l-3.12-4.26Z"/>
        <path class="cls-1" d="M271.58,75.19c.44.19.84.47,1.22.85l-1.14,1.13c-.38-.45-.91-.68-1.59-.68s-1.12.16-1.31.48-.19.6,0,.82c.19.23.62.4,1.31.51.72.07,1.37.31,1.96.71.59.4.88,1.03.88,1.9,0,.68-.31,1.27-.94,1.76-.63.49-1.36.74-2.19.74s-1.45-.11-1.98-.34c-.53-.23-.98-.53-1.36-.91l1.14-1.14c.38.45,1.02.72,1.93.8.76,0,1.23-.16,1.42-.48.19-.32.19-.64,0-.96-.19-.32-.66-.52-1.42-.6-.68-.08-1.31-.28-1.87-.62-.57-.34-.85-.93-.85-1.76,0-.75.32-1.36.97-1.81.64-.46,1.31-.69,1.99-.69.79,0,1.4.09,1.84.28Z"/>
        <path class="cls-1" d="M274.43,74.91h1.7v8.52h-1.7v-8.52Z"/>
        <path class="cls-1" d="M278.65,82.2c-.81-.81-1.22-1.83-1.22-3.05,0-1.2.41-2.2,1.23-3.02.81-.81,1.82-1.22,3.03-1.22s2.26.38,3.13,1.14l-1.14,1.24c-.58-.45-1.24-.68-1.99-.68-.77,0-1.38.24-1.85.72-.47.47-.7,1.08-.7,1.82,0,.79.24,1.42.71,1.89.47.46,1.09.7,1.85.7s1.43-.23,1.98-.68l1.14,1.24c-.87.76-1.91,1.13-3.13,1.13-1.2,0-2.21-.41-3.03-1.22Z"/>
        <path class="cls-1" d="M291.25,75.19c.44.19.84.47,1.22.85l-1.14,1.13c-.38-.45-.91-.68-1.59-.68s-1.12.16-1.31.48c-.19.32-.19.6,0,.82.19.23.62.4,1.31.51.72.07,1.37.31,1.96.71.59.4.88,1.03.88,1.9,0,.68-.31,1.27-.94,1.76-.63.49-1.36.74-2.19.74s-1.45-.11-1.98-.34c-.53-.23-.98-.53-1.36-.91l1.14-1.14c.38.45,1.02.72,1.93.8.76,0,1.23-.16,1.42-.48.19-.32.19-.64,0-.96-.19-.32-.66-.52-1.42-.6-.68-.08-1.31-.28-1.87-.62-.57-.34-.85-.93-.85-1.76,0-.75.32-1.36.97-1.81.64-.46,1.31-.69,1.99-.69.79,0,1.4.09,1.84.28Z"/>
        <path class="cls-1" d="M297.63,83.43l3.41-8.52h1.7l3.4,8.51h-1.81s-.51-1.3-.51-1.3h-3.86l-.51,1.31h-1.82ZM301.94,77.18l-1.29,3.24h2.56l-1.26-3.24Z"/>
        <path class="cls-1" d="M307.41,83.43v-8.52h.57l5.34,5.34v-5.34h1.7v8.52h-.62l-5.28-5.28v5.28h-1.7Z"/>
        <path class="cls-1" d="M316.79,83.43v-8.52h3.28c2.65,0,3.97,1.42,3.97,4.26s-1.32,4.26-3.97,4.26h-3.28ZM320.07,81.73c1.51,0,2.27-.86,2.27-2.56,0-1.7-.76-2.56-2.27-2.56h-1.58v5.12h1.58Z"/>
        <path class="cls-1" d="M329.85,83.43v-8.52h.57l3.69,4.2,3.7-4.2h.57v8.52h-1.7v-4.94s-2.56,2.84-2.56,2.84l-2.55-2.84v4.94h-1.7Z"/>
        <path class="cls-1" d="M339.62,83.43l3.41-8.52h1.7l3.4,8.51h-1.81s-.51-1.3-.51-1.3h-3.86l-.51,1.31h-1.82ZM343.93,77.18l-1.29,3.24h2.56l-1.26-3.24Z"/>
        <path class="cls-1" d="M356.36,74.91v1.59h-2.84v6.93h-1.7v-6.93h-2.84v-1.59h7.38Z"/>
        <path class="cls-1" d="M357.62,83.43v-8.52h1.7v3.41h3.97v-3.41h1.7v8.52h-1.7s0-3.52,0-3.52h-3.97v3.52h-1.7Z"/>
        <path class="cls-1" d="M366.81,83.43v-8.51h6.26s0,1.59,0,1.59h-4.55v1.82h3.41v1.58h-3.41v1.94h4.54v1.59h-6.25Z"/>
        <path class="cls-1" d="M374.79,83.43v-8.52h.57l3.69,4.2,3.7-4.2h.57v8.52h-1.7v-4.94s-2.56,2.84-2.56,2.84l-2.55-2.84v4.94h-1.7Z"/>
        <path class="cls-1" d="M384.56,83.43l3.41-8.52h1.7l3.4,8.51h-1.81s-.51-1.3-.51-1.3h-3.86l-.51,1.31h-1.82ZM388.86,77.18l-1.29,3.24h2.56l-1.26-3.24Z"/>
        <path class="cls-1" d="M401.3,74.91v1.59h-2.84v6.93h-1.7v-6.93h-2.84v-1.59h7.38Z"/>
        <path class="cls-1" d="M402.56,74.91h1.7v8.52h-1.7v-8.52Z"/>
        <path class="cls-1" d="M406.77,82.2c-.82-.81-1.22-1.83-1.22-3.05,0-1.2.41-2.2,1.23-3.02.81-.81,1.82-1.22,3.03-1.22s2.26.38,3.13,1.14l-1.13,1.24c-.58-.45-1.24-.68-1.99-.68-.76,0-1.38.24-1.85.72s-.7,1.08-.7,1.82c0,.79.24,1.42.71,1.89.47.46,1.09.7,1.85.7s1.42-.23,1.98-.68l1.13,1.24c-.87.76-1.91,1.13-3.13,1.13-1.2,0-2.21-.41-3.03-1.22Z"/>
        <path class="cls-1" d="M419.37,75.19c.43.19.84.47,1.22.85l-1.14,1.13c-.38-.45-.91-.68-1.59-.68s-1.12.16-1.31.48c-.19.32-.19.6,0,.82.19.23.62.4,1.31.51.72.07,1.37.31,1.96.71.59.4.88,1.03.88,1.9,0,.68-.31,1.27-.94,1.76-.63.49-1.36.74-2.19.74s-1.45-.11-1.98-.34c-.53-.23-.98-.53-1.36-.91l1.14-1.14c.38.45,1.02.72,1.93.8.76,0,1.23-.16,1.42-.48.19-.32.19-.64,0-.96-.19-.32-.66-.52-1.42-.6-.68-.08-1.3-.28-1.87-.62-.57-.34-.85-.93-.85-1.76,0-.75.32-1.36.97-1.81.64-.46,1.31-.69,1.99-.69.79,0,1.4.09,1.84.28Z"/>
        <path class="cls-1" d="M427.01,82.2c-.82-.81-1.22-1.83-1.22-3.05,0-1.2.41-2.2,1.23-3.02.81-.81,1.82-1.22,3.03-1.22s2.26.38,3.13,1.14l-1.13,1.24c-.58-.45-1.24-.68-1.99-.68-.76,0-1.38.24-1.85.72s-.7,1.08-.7,1.82c0,.79.24,1.42.71,1.89.47.46,1.09.7,1.85.7s1.42-.23,1.98-.68l1.13,1.24c-.87.76-1.91,1.13-3.13,1.13-1.2,0-2.21-.41-3.03-1.22Z"/>
        <path class="cls-1" d="M435.79,82.2c-.81-.82-1.22-1.83-1.22-3.04s.41-2.22,1.22-3.04c.81-.81,1.83-1.22,3.04-1.22s2.22.41,3.04,1.22c.81.81,1.22,1.83,1.22,3.04s-.41,2.22-1.22,3.04c-.81.81-1.83,1.22-3.04,1.22s-2.22-.41-3.04-1.22ZM438.83,81.84c.75,0,1.37-.26,1.84-.77.47-.51.71-1.15.71-1.9s-.24-1.39-.71-1.9c-.47-.51-1.09-.77-1.85-.77s-1.37.25-1.84.77c-.47.51-.71,1.14-.71,1.9s.24,1.39.71,1.9c.47.51,1.09.77,1.85.77Z"/>
        <path class="cls-1" d="M444.35,83.43v-8.52h.57l3.69,4.2,3.7-4.2h.57v8.52h-1.7v-4.94s-2.56,2.84-2.56,2.84l-2.56-2.84v4.94h-1.7Z"/>
        <path class="cls-1" d="M454.57,83.43v-8.52h3.71c1.99,0,2.98.82,2.98,2.45s-.99,2.54-2.97,2.54h-2.02v3.52h-1.7ZM456.27,78.32h2.39c.69-.01,1.04-.32,1.06-.94-.02-.56-.37-.85-1.04-.87h-2.4v1.81Z"/>
        <path class="cls-1" d="M462.5,83.43v-8.51h6.26s0,1.59,0,1.59h-4.56v1.82h3.41v1.58h-3.41v1.94h4.54v1.59h-6.25Z"/>
        <path class="cls-1" d="M477.42,74.91v1.59h-2.84v6.93h-1.7v-6.93h-2.84v-1.59h7.38Z"/>
        <path class="cls-1" d="M478.69,74.91h1.7v8.52h-1.7v-8.52Z"/>
        <path class="cls-1" d="M489.05,74.91v1.59h-2.84v6.93h-1.7v-6.93h-2.84v-1.59h7.38Z"/>
        <path class="cls-1" d="M490.31,74.91h1.7v8.52h-1.7v-8.52Z"/>
        <path class="cls-1" d="M494.51,82.2c-.81-.82-1.22-1.83-1.22-3.04s.41-2.22,1.22-3.04c.81-.81,1.83-1.22,3.04-1.22s2.22.41,3.04,1.22c.81.81,1.22,1.83,1.22,3.04s-.41,2.22-1.22,3.04c-.81.81-1.83,1.22-3.04,1.22s-2.22-.41-3.04-1.22ZM497.55,81.84c.75,0,1.37-.26,1.84-.77.47-.51.71-1.15.71-1.9s-.24-1.39-.71-1.9c-.47-.51-1.09-.77-1.85-.77s-1.37.25-1.84.77c-.47.51-.71,1.14-.71,1.9s.24,1.39.71,1.9c.47.51,1.09.77,1.85.77Z"/>
        <path class="cls-1" d="M503.07,83.43v-8.52h.57l5.34,5.34v-5.34h1.7v8.52h-.62l-5.28-5.28v5.28h-1.7Z"/>
      </g>
    </g>
  </g>
</svg>