<?xml version="1.0" encoding="UTF-8"?>
<svg id="Layer_2" data-name="Layer 2" xmlns="http://www.w3.org/2000/svg" viewBox="0 0 454.21 807.87">
  <defs>
    <style>
      .cls-1 {
        fill: #f89905;
        stroke-width: 0px;
      }
    </style>
  </defs>
  <g id="Layer_1-2" data-name="Layer 1">
    <path class="cls-1" d="M365.07,0c.93,1.05.4.46,1.72,1.82,3.11,3.23,6.35,6.34,9.4,9.63,15.66,16.85,29.11,35.3,40.44,55.33,14.45,25.56,24.66,52.73,31,81.36,1.97,8.9,3.32,17.91,4.5,26.96,2.42,18.5,2.48,37.08,1.47,55.62-1,18.39-4.19,36.52-8.92,54.37-10.01,37.79-26.91,72.18-50.51,103.3-1.16,1.53-2.43,2.99-3.78,4.35-3.98,3.97-7.48,8.32-10.76,12.88-9.25,12.87-18.63,25.66-27.91,38.51-3.65,5.06-7.48,10.02-10.7,15.35-3.97,6.56-7.68,13.32-10.99,20.24-8.39,17.53-14.68,35.82-18.83,54.82-1.98,9.07-3.49,18.21-4.59,27.43-1.45,12.11-2.08,24.25-1.61,36.42.27,7.02,1.04,14.03,1.66,21.04,1.11,12.63,3.58,25.02,6.81,37.25,9.47,35.81,25.78,68.18,49.28,96.84,5.58,6.8,11.36,13.48,17.55,19.73,16.87,17.03,31.81,27.28,37.72,31.16,2.26,1.49,4.17,2.65,5.47,3.46-141.17,0-282.34,0-423.5,0V0"/>
  </g>
</svg>